# xmcd
#
# Track frame offsets:
#	180
#	15176
#	28435
#	45676
#	57830
#	74138
#	95781
#	119444
#	137664
#	153948
#	175016
#	186203
#	197171
#	224430
#
# Disc length: 3133 seconds
#
# Revision: 0
# Processed by: cddbd v1.4PL0 Copyright (c) Steve Scherf et al.
# Submitted via: dBpowerAMP V4.0
#
DISCID=cf0c3b0e
DTITLE=Jimmy D. Taylor - Little Boys Blue
DYEAR=1900
DGENRE=
TTITLE0=Downtown Willie
TTITLE1=Get Away From Me
TTITLE2=Bring it On Over
TTITLE3=Sittin' On The Front Porch
TTITLE4=Low Down
TTITLE5=Long Time Comin
TTITLE6=Dark Cloud
TTITLE7=It Ain't Me
TTITLE8=Tupelo Rose
TTITLE9=Nothin' Left But The Blues
TTITLE10=Never Gonna Let You Go
TTITLE11=Layin' in The Shade
TTITLE12=High And Dry
TTITLE13=Play Dead
EXTD=Great blues Music out of Brownsville, TN \nCopyrighted by Jimmy D. Taylor
EXTT0=
EXTT1=
EXTT2=
EXTT3=
EXTT4=
EXTT5=
EXTT6=
EXTT7=
EXTT8=
EXTT9=
EXTT10=
EXTT11=
EXTT12=
EXTT13=
PLAYORDER=
